M48
INCH,TZ
T1C0.016
T2C0.028
T3C0.032
T4C0.035
T5C0.035
T6C0.039
T7C0.040
T8C0.079
%
G90
G05
T1
X56969Y-25335
X58976Y-52992
X61969Y-45531
X63661Y-49350
T3
X48504Y-55535
X48504Y-57535
X48764Y-47638
X50764Y-47638
X53961Y-46713
X53980Y-47638
X55961Y-46713
X55980Y-47638
X57406Y-45531
X57953Y-57012
X57953Y-59012
X58379Y-20126
X58379Y-22126
X58382Y-22878
X58382Y-24878
X58976Y-57012
X58976Y-59012
X59406Y-45531
X59980Y-46677
X59980Y-48677
X60965Y-46638
X60965Y-48638
X61969Y-46638
X61969Y-48638
X62972Y-46638
X62972Y-48638
X63876Y-20117
X63876Y-22117
X63878Y-22893
X63878Y-24893
X63980Y-46634
X64472Y-48760
X64646Y-52996
X64646Y-54996
X65980Y-46634
X66472Y-48760
X67402Y-46697
X67402Y-48697
X68583Y-55575
X68583Y-57575
T4
X57946Y-55587
X58946Y-55587
T7
X54138Y-42434
X54138Y-43434
X55138Y-42434
X55138Y-43434
X56138Y-42434
X56138Y-43434
X57138Y-42434
X57138Y-43434
X58138Y-42434
X58138Y-43434
X59138Y-42434
X59138Y-43434
X60138Y-42434
X60138Y-43434
X61138Y-42434
X61138Y-43434
X62138Y-42434
X62138Y-43434
X63138Y-42434
X63138Y-43434
T8
X60155Y-20966
X60155Y-22546
X60155Y-24126
X62035Y-20966
X62035Y-22546
X62035Y-24126
T2
X50847Y-21261G85X50138Y-21261
G05
X50847Y-24450G85X50138Y-24450
G05
X50138Y-58740G85X50847Y-58740
G05
X50138Y-61929G85X50847Y-61929
G05
X55104Y-55644G85X54396Y-55644
G05
X55104Y-58833G85X54396Y-58833
G05
X55434Y-20671G85X56142Y-20671
G05
X55434Y-23860G85X56142Y-23860
G05
X57677Y-61398G85X57677Y-60807
G05
X59252Y-61378G85X59252Y-60827
G05
X62534Y-55644G85X61826Y-55644
G05
X62534Y-58833G85X61826Y-58833
G05
X66789Y-21247G85X66080Y-21247
G05
X66789Y-24436G85X66080Y-24436
G05
X66080Y-58740G85X66789Y-58740
G05
X66080Y-61929G85X66789Y-61929
G05
T5
X49497Y-28959G85X49497Y-29786
G05
X49497Y-50612G85X49497Y-51439
G05
X51465Y-52581G85X51465Y-53408
G05
X54812Y-28959G85X54812Y-29786
G05
X54812Y-50612G85X54812Y-51439
G05
X56780Y-52581G85X56780Y-53408
G05
X60127Y-28959G85X60127Y-29786
G05
X60127Y-50612G85X60127Y-51439
G05
X62095Y-52581G85X62095Y-53408
G05
X65442Y-28959G85X65442Y-29786
G05
X65442Y-50612G85X65442Y-51439
G05
X67410Y-52581G85X67410Y-53408
G05
T6
X48642Y-22383G85X48642Y-22265
G05
X48642Y-60571G85X48642Y-61161
G05
X52343Y-22620G85X52343Y-22029
G05
X52343Y-60807G85X52343Y-60925
G05
X52900Y-56766G85X52900Y-56648
G05
X53938Y-22501G85X53938Y-23092
G05
X56601Y-57002G85X56601Y-56412
G05
X57638Y-22738G85X57638Y-22856
G05
X60330Y-56766G85X60330Y-56648
G05
X64030Y-57002G85X64030Y-56412
G05
X64584Y-22369G85X64584Y-22251
G05
X64584Y-60571G85X64584Y-61161
G05
X68285Y-22605G85X68285Y-22015
G05
X68285Y-60807G85X68285Y-60925
G05
T0
M30
