M48
INCH,TZ
T1C0.024
T2C0.032
T3C0.036
T4C0.040
%
G90
G05
T1
X59289Y-41181
T2
X50181Y-28228
X50549Y-32028
X50555Y-29528
X50560Y-33542
X50575Y-30728
X50609Y-37602
X50609Y-39602
X50861Y-43514
X50861Y-45514
X50870Y-35433
X50978Y-47104
X50978Y-48104
X50978Y-49104
X50978Y-50104
X50978Y-51104
X50978Y-52104
X50978Y-53104
X51560Y-33542
X51756Y-41732
X52175Y-36964
X52175Y-39964
X52181Y-28228
X52471Y-43575
X52471Y-45575
X52549Y-32028
X52555Y-29528
X52560Y-33542
X52575Y-30728
X52870Y-35433
X53175Y-36964
X53175Y-39964
X53646Y-45768
X53756Y-41732
X53957Y-35685
X53976Y-54315
X53976Y-55315
X53976Y-56315
X53978Y-47104
X53978Y-48104
X53978Y-49104
X53978Y-50104
X53978Y-51104
X53978Y-52104
X53978Y-53104
X54175Y-36964
X54175Y-39964
X54228Y-31520
X54228Y-33520
X55020Y-41655
X55175Y-36964
X55175Y-39964
X55315Y-51283
X55315Y-53283
X55646Y-45768
X55715Y-46917
X55715Y-48917
X55768Y-54433
X55768Y-56433
X55784Y-30903
X55784Y-33903
X55957Y-35685
X56175Y-36964
X56175Y-39964
X56280Y-51520
X56280Y-53520
X56515Y-29139
X56784Y-30903
X56784Y-33903
X56811Y-46905
X56811Y-48905
X57020Y-41655
X57175Y-36964
X57175Y-39964
X57315Y-29139
X57487Y-35106
X57778Y-50046
X57778Y-51046
X57778Y-52046
X57784Y-30903
X57784Y-33903
X57819Y-52943
X57819Y-53943
X57819Y-54943
X57915Y-46806
X57915Y-48806
X58156Y-55987
X58175Y-36964
X58175Y-39964
X58387Y-42031
X58784Y-30903
X58784Y-33903
X58810Y-46830
X58810Y-48830
X59175Y-36964
X59175Y-39964
X59487Y-35106
X59643Y-52940
X59643Y-53940
X59643Y-54940
X59653Y-50048
X59653Y-51048
X59653Y-52048
X59906Y-29124
X60095Y-46885
X60095Y-48885
X60156Y-55987
X60294Y-31315
X60294Y-33315
X60387Y-42031
X60706Y-29124
X60866Y-37514
X60866Y-39514
X61032Y-34462
X61032Y-35462
X61032Y-36462
X61245Y-48371
X61251Y-46695
X61254Y-47533
X61336Y-55450
X61486Y-54223
X61627Y-50028
X61627Y-52028
X61657Y-31229
X61657Y-33229
X62023Y-41210
X62323Y-35614
X62323Y-37614
X62386Y-56496
X63023Y-41210
X63108Y-49660
X63108Y-52660
X63245Y-48371
X63251Y-46695
X63254Y-47533
X63334Y-30616
X63334Y-31616
X63334Y-32616
X63334Y-33616
X63334Y-34616
X63334Y-35616
X63334Y-36616
X63336Y-55450
X63486Y-54223
X63770Y-38361
X63810Y-28994
X63842Y-25551
X63873Y-27289
X64023Y-41210
X64108Y-49660
X64108Y-52660
X64187Y-39656
X64386Y-56496
X64548Y-54160
X64554Y-42157
X64569Y-43174
X64577Y-44460
X64583Y-47711
X64607Y-45977
X65108Y-49660
X65108Y-52660
X65770Y-38361
X65810Y-28994
X65842Y-25551
X65873Y-27289
X66108Y-49660
X66108Y-52660
X66187Y-39656
X66334Y-30616
X66334Y-31616
X66334Y-32616
X66334Y-33616
X66334Y-34616
X66334Y-35616
X66334Y-36616
X66548Y-54160
X66554Y-42157
X66569Y-43174
X66577Y-44460
X66583Y-47711
X66607Y-45977
T3
X56694Y-25771
X56694Y-26771
X57694Y-25771
X57694Y-26771
X58694Y-25771
X58694Y-26771
X59694Y-25771
X59694Y-26771
X60694Y-25771
X60694Y-26771
T4
X54160Y-43537
X54160Y-44537
X55160Y-43537
X55160Y-44537
X56160Y-43537
X56160Y-44537
X57160Y-43537
X57160Y-44537
X58160Y-43537
X58160Y-44537
X59160Y-43537
X59160Y-44537
X60160Y-43537
X60160Y-44537
X61160Y-43537
X61160Y-44537
X62160Y-43537
X62160Y-44537
X63160Y-43537
X63160Y-44537
T0
M30
