G04 #@! TF.FileFunction,Profile,NP*
%FSLAX46Y46*%
G04 Gerber Fmt 4.6, Leading zero omitted, Abs format (unit mm)*
G04 Created by KiCad (PCBNEW 4.0.5) date 07/14/17 20:39:28*
%MOMM*%
%LPD*%
G01*
G04 APERTURE LIST*
%ADD10C,0.100000*%
%ADD11C,0.200000*%
%ADD12C,0.150000*%
G04 APERTURE END LIST*
D10*
D11*
X170021316Y-128603600D02*
G75*
G02X167481316Y-128603600I-1270000J0D01*
G01*
X156521316Y-128603600D02*
G75*
G02X153981316Y-128603600I-1270000J0D01*
G01*
X143021316Y-128603600D02*
G75*
G02X140481316Y-128603600I-1270000J0D01*
G01*
X170021316Y-76603600D02*
G75*
G03X167481316Y-76603600I-1270000J0D01*
G01*
X156521316Y-76603600D02*
G75*
G03X153981316Y-76603600I-1270000J0D01*
G01*
X143021316Y-76603600D02*
G75*
G03X140481316Y-76603600I-1270000J0D01*
G01*
X129521316Y-128603600D02*
G75*
G02X126981316Y-128603600I-1270000J0D01*
G01*
X129521316Y-76603600D02*
G75*
G03X126981316Y-76603600I-1270000J0D01*
G01*
D12*
X167481316Y-128603600D02*
X167481316Y-76603600D01*
X170021316Y-76603600D02*
X170021316Y-128603600D01*
X153981316Y-128603600D02*
X153981316Y-76603600D01*
X156521316Y-76603600D02*
X156521316Y-128603600D01*
X126981316Y-128603600D02*
X126981316Y-76603600D01*
X129521316Y-76603600D02*
X129521316Y-128603600D01*
X143021316Y-76603600D02*
X143021316Y-128603600D01*
X140481316Y-128603600D02*
X140481316Y-76603600D01*
D11*
X176275000Y-169250000D02*
X120725000Y-169250000D01*
X176275000Y-40750000D02*
X176275000Y-169250000D01*
X120725000Y-40750000D02*
X176275000Y-40750000D01*
X120725000Y-169250000D02*
X120725000Y-40750000D01*
M02*
